<svg width="50" height="28" viewBox="0 0 50 28" fill="none" xmlns="http://www.w3.org/2000/svg">
<rect x="1" y="1.5" width="48" height="25" rx="12.5" fill="#7B7C9D"/>
<path d="M12.418 14.3799H10.5918L10.582 13.374H12.1152C12.3854 13.374 12.6068 13.3398 12.7793 13.2715C12.9518 13.1999 13.0804 13.0973 13.165 12.9639C13.2529 12.8271 13.2969 12.6611 13.2969 12.4658C13.2969 12.2445 13.2546 12.0654 13.1699 11.9287C13.0885 11.792 12.96 11.6927 12.7842 11.6309C12.6117 11.569 12.3887 11.5381 12.1152 11.5381H11.0996V17.5H9.63477V10.3906H12.1152C12.5286 10.3906 12.8981 10.4297 13.2236 10.5078C13.5524 10.5859 13.8307 10.7048 14.0586 10.8643C14.2865 11.0238 14.4606 11.2256 14.5811 11.4697C14.7015 11.7106 14.7617 11.9971 14.7617 12.3291C14.7617 12.6221 14.695 12.8923 14.5615 13.1396C14.4313 13.387 14.2246 13.5889 13.9414 13.7451C13.6615 13.9014 13.2952 13.9876 12.8428 14.0039L12.418 14.3799ZM12.3545 17.5H10.1914L10.7627 16.3574H12.3545C12.6117 16.3574 12.8216 16.3167 12.9844 16.2354C13.1471 16.1507 13.2676 16.0368 13.3457 15.8936C13.4238 15.7503 13.4629 15.5859 13.4629 15.4004C13.4629 15.1921 13.4271 15.0114 13.3555 14.8584C13.2871 14.7054 13.1764 14.5882 13.0234 14.5068C12.8704 14.4222 12.6686 14.3799 12.418 14.3799H11.0068L11.0166 13.374H12.7744L13.1113 13.7695C13.5443 13.763 13.8926 13.8395 14.1562 13.999C14.4232 14.1553 14.6169 14.3587 14.7373 14.6094C14.861 14.86 14.9229 15.1286 14.9229 15.415C14.9229 15.8708 14.8236 16.2549 14.625 16.5674C14.4264 16.8766 14.1351 17.1094 13.751 17.2656C13.3701 17.4219 12.9046 17.5 12.3545 17.5ZM19.7121 11.6064L17.7785 17.5H16.2209L18.8625 10.3906H19.8537L19.7121 11.6064ZM21.3186 17.5L19.3801 11.6064L19.2238 10.3906H20.2248L22.8811 17.5H21.3186ZM21.2307 14.8535V16.001H17.4758V14.8535H21.2307ZM28.0414 15.6396C28.0414 15.5127 28.0219 15.3988 27.9828 15.2979C27.947 15.1937 27.8786 15.0993 27.7777 15.0146C27.6768 14.9268 27.5352 14.8405 27.3529 14.7559C27.1706 14.6712 26.9346 14.5833 26.6449 14.4922C26.3227 14.388 26.0167 14.2708 25.727 14.1406C25.4405 14.0104 25.1866 13.859 24.9652 13.6865C24.7471 13.5107 24.5746 13.3073 24.4477 13.0762C24.324 12.8451 24.2621 12.5765 24.2621 12.2705C24.2621 11.9743 24.3272 11.7057 24.4574 11.4648C24.5876 11.2207 24.7699 11.0124 25.0043 10.8398C25.2387 10.6641 25.5154 10.529 25.8344 10.4346C26.1566 10.3402 26.5098 10.293 26.8939 10.293C27.418 10.293 27.8754 10.3874 28.266 10.5762C28.6566 10.765 28.9594 11.0238 29.1742 11.3525C29.3923 11.6813 29.5014 12.0573 29.5014 12.4805H28.0463C28.0463 12.2721 28.0023 12.0898 27.9145 11.9336C27.8298 11.7741 27.6996 11.6488 27.5238 11.5576C27.3513 11.4665 27.1332 11.4209 26.8695 11.4209C26.6156 11.4209 26.404 11.46 26.2348 11.5381C26.0655 11.613 25.9385 11.7155 25.8539 11.8457C25.7693 11.9727 25.727 12.1159 25.727 12.2754C25.727 12.3958 25.7563 12.5049 25.8148 12.6025C25.8767 12.7002 25.9678 12.7913 26.0883 12.876C26.2087 12.9606 26.3568 13.0404 26.5326 13.1152C26.7084 13.1901 26.9118 13.2633 27.143 13.335C27.5303 13.4521 27.8705 13.584 28.1635 13.7305C28.4597 13.877 28.7071 14.0413 28.9057 14.2236C29.1042 14.4059 29.254 14.6126 29.3549 14.8438C29.4558 15.0749 29.5063 15.3369 29.5063 15.6299C29.5063 15.9391 29.446 16.2158 29.3256 16.46C29.2051 16.7041 29.031 16.9108 28.8031 17.0801C28.5753 17.2493 28.3035 17.3779 27.9877 17.4658C27.6719 17.5537 27.3188 17.5977 26.9281 17.5977C26.5766 17.5977 26.2299 17.5521 25.8881 17.4609C25.5463 17.3665 25.2354 17.2249 24.9555 17.0361C24.6788 16.8473 24.4574 16.6064 24.2914 16.3135C24.1254 16.0205 24.0424 15.6738 24.0424 15.2734H25.5121C25.5121 15.4948 25.5463 15.682 25.6146 15.835C25.683 15.988 25.779 16.1117 25.9027 16.2061C26.0297 16.3005 26.1794 16.3688 26.352 16.4111C26.5277 16.4535 26.7198 16.4746 26.9281 16.4746C27.182 16.4746 27.3904 16.4388 27.5531 16.3672C27.7191 16.2956 27.8412 16.1963 27.9193 16.0693C28.0007 15.9424 28.0414 15.7992 28.0414 15.6396ZM32.86 10.3906V17.5H31.4V10.3906H32.86ZM39.1531 15.1416H40.6131C40.5838 15.6201 40.452 16.0449 40.2176 16.416C39.9865 16.7871 39.6626 17.0768 39.2459 17.2852C38.8325 17.4935 38.3344 17.5977 37.7518 17.5977C37.296 17.5977 36.8875 17.5195 36.5262 17.3633C36.1648 17.2038 35.8556 16.9759 35.5984 16.6797C35.3445 16.3835 35.1508 16.0254 35.0174 15.6055C34.8839 15.1855 34.8172 14.7152 34.8172 14.1943V13.7012C34.8172 13.1803 34.8855 12.71 35.0223 12.29C35.1622 11.8669 35.3608 11.5072 35.618 11.2109C35.8784 10.9147 36.1893 10.6868 36.5506 10.5273C36.9119 10.3678 37.3156 10.2881 37.7615 10.2881C38.354 10.2881 38.8536 10.3955 39.2605 10.6104C39.6707 10.8252 39.9881 11.1214 40.2127 11.499C40.4406 11.8766 40.5773 12.3063 40.6229 12.7881H39.158C39.1417 12.5016 39.0848 12.2591 38.9871 12.0605C38.8895 11.8587 38.7413 11.7074 38.5428 11.6064C38.3475 11.5023 38.087 11.4502 37.7615 11.4502C37.5174 11.4502 37.3042 11.4958 37.1219 11.5869C36.9396 11.6781 36.7866 11.8164 36.6629 12.002C36.5392 12.1875 36.4464 12.4219 36.3846 12.7051C36.326 12.985 36.2967 13.3138 36.2967 13.6914V14.1943C36.2967 14.5622 36.3243 14.8861 36.3797 15.166C36.435 15.4427 36.5197 15.6771 36.6336 15.8691C36.7508 16.0579 36.9005 16.2012 37.0828 16.2988C37.2684 16.3932 37.4913 16.4404 37.7518 16.4404C38.0577 16.4404 38.31 16.3916 38.5086 16.2939C38.7072 16.1963 38.8585 16.0514 38.9627 15.8594C39.0701 15.6673 39.1336 15.4281 39.1531 15.1416Z" fill="white"/>
<rect x="1" y="1.5" width="48" height="25" rx="12.5" stroke="#FBFBFE" stroke-width="2"/>
</svg>
